<?xml version="1.0" standalone="no"?>
<!DOCTYPE svg PUBLIC "-//W3C//DTD SVG 20010904//EN"
 "http://www.w3.org/TR/2001/REC-SVG-20010904/DTD/svg10.dtd">
<svg version="1.0" xmlns="http://www.w3.org/2000/svg"
 width="2048.000000pt" height="2048.000000pt" viewBox="0 0 2048.000000 2048.000000"
 preserveAspectRatio="xMidYMid meet">

<g transform="translate(0.000000,2048.000000) scale(0.100000,-0.100000)"
fill="#000000" stroke="none">
<path d="M10294 15807 c-2 -7 -3 -583 -2 -1282 l3 -1270 113 -7 c318 -20 658
-122 884 -265 l39 -24 231 223 c309 299 623 627 611 639 -6 6 -33 6 -72 0
l-62 -10 -121 76 c-237 148 -497 268 -780 358 l-117 38 -60 176 c-147 436
-410 1189 -424 1216 -32 62 -102 112 -183 131 -42 9 -56 10 -60 1z"/>
<path d="M13561 15158 c-65 -32 -139 -111 -273 -292 l-120 -161 -141 4 c-78 1
-145 5 -149 7 -4 3 -2 18 4 35 9 26 7 33 -12 54 -49 52 -95 40 -150 -41 l-32
-46 -107 6 c-58 3 -169 8 -246 12 l-140 6 -49 -67 c-26 -36 -47 -68 -44 -70 2
-2 102 -36 223 -75 456 -148 560 -183 568 -190 5 -4 -58 -108 -140 -230 l-148
-222 -162 7 -162 7 -31 -30 c-16 -17 -30 -37 -30 -44 0 -8 59 -40 143 -77 78
-35 146 -67 150 -71 19 -18 -379 -526 -697 -890 -270 -308 -626 -681 -876
-916 -122 -114 -421 -375 -595 -518 -284 -234 -780 -584 -1095 -773 -815 -488
-1648 -820 -2277 -910 l-118 -17 60 -12 c33 -7 114 -20 180 -30 66 -9 121 -18
123 -19 1 -1 -9 -38 -24 -81 -35 -106 -43 -233 -20 -340 23 -103 92 -247 152
-313 46 -51 48 -55 49 -120 1 -44 9 -83 25 -119 21 -48 29 -56 87 -84 56 -27
72 -30 123 -25 32 3 85 17 119 32 60 27 63 28 136 15 86 -15 297 -9 384 10
113 25 384 161 636 318 629 391 1240 945 1810 1642 358 437 713 937 1015 1430
62 102 141 230 175 285 34 55 104 174 155 265 156 279 278 498 365 655 45 83
96 171 114 197 18 26 52 86 76 133 l43 86 64 -82 c35 -45 69 -89 76 -98 12
-14 16 -12 42 19 16 19 30 41 30 49 0 8 -16 77 -36 155 -32 124 -35 143 -23
162 8 12 68 85 134 161 66 77 138 161 160 188 l40 48 110 -174 c160 -255 335
-519 343 -519 7 1 21 18 66 85 33 48 35 38 -44 300 l-60 200 30 40 c17 22 38
54 47 72 15 29 15 34 -1 58 -27 41 -62 53 -97 33 -16 -9 -30 -14 -33 -10 -2 4
-20 66 -41 138 l-37 131 70 94 c185 251 242 356 242 447 -1 50 -12 72 -47 90
-32 17 -63 15 -112 -10z"/>
<path d="M7390 14208 c-25 -42 -34 -85 -28 -151 3 -43 44 -133 231 -515 l226
-463 -84 -127 c-141 -215 -257 -451 -339 -692 -25 -73 -46 -134 -48 -135 -4
-4 -1091 -360 -1233 -404 -118 -37 -194 -78 -229 -124 -37 -48 -64 -115 -68
-167 l-3 -45 1291 -3 1292 -2 7 82 c37 455 216 863 513 1171 l56 58 -375 375
c-206 207 -557 555 -781 776 l-407 400 -21 -34z"/>
<path d="M12601 12838 c-54 -112 -62 -134 -45 -131 8 1 7 -11 -3 -39 -26 -76
-6 -48 51 72 31 66 54 126 50 132 -4 6 -3 8 3 5 6 -4 14 0 17 9 9 24 7 27 -9
14 -9 -7 -18 -10 -22 -6 -3 3 -2 6 3 6 5 0 10 9 11 20 1 11 0 20 -2 20 -3 0
-27 -46 -54 -102z"/>
<path d="M12394 11342 l-221 -2 -7 -91 c-34 -449 -209 -837 -534 -1180 l-91
-96 -96 -264 c-54 -145 -128 -354 -165 -464 -38 -110 -112 -325 -164 -478 -53
-153 -96 -281 -96 -284 0 -16 257 58 408 116 129 51 367 165 452 218 l65 40
190 -82 c105 -44 251 -108 325 -142 290 -131 447 -197 485 -204 91 -17 181 27
221 108 22 45 26 63 22 115 -5 58 -24 101 -233 524 l-227 462 70 98 c189 266
333 561 404 828 l13 49 475 148 c718 225 871 275 921 307 25 16 60 51 78 78
34 52 64 141 59 174 -3 20 -9 20 -1068 23 -586 1 -1164 1 -1286 -1z"/>
<path d="M10190 9397 c-227 -220 -640 -536 -922 -706 -48 -28 -90 -56 -93 -61
-8 -12 64 -43 240 -102 83 -28 155 -56 162 -62 6 -6 111 -310 233 -676 122
-366 232 -682 246 -702 49 -76 119 -124 199 -135 l45 -6 0 1277 c0 702 -1
1276 -2 1276 -2 -1 -50 -47 -108 -103z"/>
<path d="M9282 5398 c3 -633 4 -644 25 -696 30 -75 63 -113 119 -142 94 -48
298 -37 348 19 16 17 15 25 -5 115 -21 90 -24 97 -43 91 -42 -14 -94 -17 -115
-5 -12 6 -31 26 -41 43 -19 31 -20 55 -20 625 l0 592 -136 0 -135 0 3 -642z"/>
<path d="M4100 5755 l0 -155 -80 0 -80 0 0 -105 0 -105 79 0 80 0 3 -312 c3
-298 4 -316 26 -370 49 -122 150 -181 307 -180 102 0 177 22 235 71 l34 28
-37 80 c-20 43 -37 84 -37 91 0 15 3 16 -54 -13 -27 -14 -66 -25 -85 -25 -45
0 -98 32 -111 66 -6 14 -10 144 -10 295 l0 269 143 0 142 0 -3 111 -3 111
-139 -4 -140 -3 -2 150 -3 150 -132 3 -133 3 0 -156z"/>
<path d="M16070 5675 c0 -85 -3 -115 -12 -116 -7 -1 -38 -2 -68 -3 l-55 -1 0
-90 0 -90 67 -3 66 -3 4 -267 3 -267 28 -56 c29 -60 78 -102 138 -119 87 -25
240 -3 304 44 18 13 18 16 -12 92 -16 44 -34 78 -39 77 -5 -1 -30 -10 -55 -20
-39 -14 -50 -15 -78 -3 -17 7 -37 22 -43 34 -8 14 -14 103 -16 254 l-4 232
116 0 117 0 -3 93 -3 92 -112 3 -113 3 0 114 0 115 -115 0 -115 0 0 -115z"/>
<path d="M5470 5623 c-102 -17 -220 -91 -270 -170 l-29 -46 -3 99 -3 99 -127
3 -128 3 0 -531 0 -530 134 0 135 0 3 293 3 292 27 51 c49 94 155 161 269 171
l59 6 0 133 c0 149 5 140 -70 127z"/>
<path d="M6070 5624 c-126 -23 -296 -83 -313 -110 -6 -11 68 -200 77 -196 3 1
32 14 63 28 114 50 273 69 366 43 79 -22 127 -90 127 -180 l0 -36 -182 5
c-249 6 -348 -18 -441 -107 -59 -55 -80 -104 -85 -196 -7 -141 52 -246 171
-304 103 -51 236 -60 358 -26 65 19 105 41 155 87 l44 41 0 -62 0 -61 126 0
126 0 -4 378 c-4 354 -6 380 -26 434 -64 175 -197 256 -427 263 -60 2 -121 2
-135 -1z m320 -687 c0 -63 -4 -79 -29 -119 -43 -68 -110 -98 -218 -98 -97 0
-138 14 -176 59 -55 66 -27 174 56 211 36 17 66 20 205 20 l162 0 0 -73z"/>
<path d="M8394 5610 c-105 -27 -171 -65 -244 -139 -108 -109 -160 -235 -160
-387 1 -250 135 -444 363 -524 78 -28 249 -38 340 -20 87 17 193 68 254 124
l52 47 -77 73 -77 74 -34 -30 c-56 -50 -116 -70 -216 -75 -74 -4 -100 -1 -145
16 -71 27 -124 71 -160 135 -54 93 -85 86 375 86 l405 0 0 88 c-1 332 -215
553 -535 551 -38 0 -102 -9 -141 -19z m239 -204 c87 -26 141 -86 173 -191 l13
-45 -284 0 -284 0 14 47 c44 148 215 235 368 189z"/>
<path d="M6800 5602 c0 -10 323 -796 400 -974 l34 -78 126 0 125 0 215 517
c118 284 216 522 218 530 3 10 -23 13 -127 13 -116 0 -131 -2 -140 -18 -10
-19 -109 -272 -219 -559 -36 -95 -68 -171 -70 -168 -3 2 -39 96 -82 207 -42
112 -105 278 -141 370 l-64 168 -137 0 c-76 0 -138 -3 -138 -8z"/>
<path d="M10150 5555 c-109 -31 -174 -86 -205 -174 -30 -87 -14 -171 46 -236
50 -54 104 -80 233 -111 208 -49 256 -72 256 -120 0 -41 -17 -61 -65 -80 -88
-33 -258 -1 -378 73 -32 19 -60 33 -61 32 -2 -2 -24 -37 -49 -76 l-46 -73 45
-30 c217 -150 578 -154 710 -7 48 53 64 94 64 170 0 110 -54 187 -165 236 -16
7 -97 30 -178 51 -164 43 -197 58 -197 94 0 61 38 86 132 86 92 0 191 -29 299
-87 7 -4 89 132 89 147 0 14 -100 66 -170 90 -87 29 -280 37 -360 15z"/>
<path d="M12203 5555 c-164 -46 -264 -162 -295 -343 -35 -207 71 -428 237
-492 128 -49 277 -36 373 31 l42 30 0 -61 c0 -144 -82 -209 -250 -197 -82 5
-180 39 -235 81 l-32 25 -48 -77 -47 -77 34 -28 c93 -79 241 -121 398 -114
163 7 273 61 345 170 63 96 67 128 68 616 l0 436 -111 3 -112 3 0 -25 0 -25
-57 26 c-47 22 -75 27 -158 30 -67 2 -117 -2 -152 -12z m308 -206 l44 -24 3
-174 2 -173 -37 -38 c-29 -28 -52 -41 -94 -50 -165 -37 -290 65 -291 237 -1
111 40 185 125 228 46 23 61 26 128 23 56 -3 87 -11 120 -29z"/>
<path d="M13260 5555 c-184 -52 -292 -206 -292 -420 0 -192 87 -342 240 -413
50 -24 69 -27 162 -27 89 0 113 4 157 23 28 13 59 32 69 43 9 10 20 19 23 19
10 0 -4 -144 -17 -166 -37 -67 -118 -99 -227 -91 -80 6 -139 26 -210 73 -27
18 -52 31 -55 29 -3 -2 -23 -38 -45 -80 l-40 -76 30 -25 c91 -75 246 -119 395
-111 205 11 339 102 385 262 17 59 20 163 17 623 l-2 343 -107 -3 c-107 -3
-108 -3 -111 -29 l-3 -25 -60 29 c-51 26 -73 31 -157 33 -66 3 -114 -1 -152
-11z m313 -208 l47 -28 0 -172 c0 -195 -2 -202 -73 -239 -32 -17 -59 -22 -118
-23 -67 0 -81 3 -124 30 -36 22 -57 45 -77 84 -56 106 -29 271 54 334 52 40
77 47 163 44 67 -2 88 -7 128 -30z"/>
<path d="M14365 5557 c-125 -32 -228 -113 -283 -223 -43 -86 -55 -151 -50
-264 4 -82 10 -108 36 -164 37 -78 113 -162 179 -198 151 -82 364 -84 517 -6
49 25 118 79 114 89 -2 4 -29 35 -62 69 -53 55 -60 60 -75 46 -9 -8 -43 -28
-76 -43 -51 -24 -73 -28 -145 -28 -94 0 -142 18 -191 72 -28 29 -59 84 -59
103 0 7 107 10 334 10 l334 0 6 43 c8 54 -8 171 -33 237 -42 111 -136 202
-249 242 -71 26 -225 33 -297 15z m242 -196 c47 -23 77 -61 98 -122 26 -73 40
-69 -215 -69 -261 0 -251 -4 -210 83 57 122 205 171 327 108z"/>
<path d="M15302 5555 c-143 -40 -216 -126 -216 -255 0 -77 24 -130 80 -179 51
-45 104 -66 267 -106 77 -19 150 -41 164 -50 86 -57 22 -143 -107 -144 -100
-1 -253 49 -329 106 -20 15 -36 22 -38 16 -2 -6 -22 -41 -45 -79 l-41 -68 29
-23 c44 -36 161 -91 234 -110 101 -26 266 -24 358 5 132 41 202 129 202 252 0
151 -85 227 -310 280 -158 37 -200 50 -220 70 -26 26 -25 53 4 87 21 24 32 28
92 31 81 5 170 -16 262 -60 35 -16 65 -28 66 -26 1 1 21 36 44 76 l41 73 -45
29 c-87 55 -186 81 -319 86 -87 3 -135 0 -173 -11z"/>
<path d="M10867 5453 c-2 -60 -3 -209 -2 -333 3 -266 13 -309 95 -391 114
-114 333 -118 475 -9 30 23 55 46 55 51 0 5 5 9 10 9 6 0 10 -26 10 -58 l0
-58 110 -3 110 -3 0 451 0 451 -114 0 -114 0 -4 -263 -3 -262 -33 -68 c-44
-88 -88 -120 -177 -125 -67 -4 -104 8 -141 50 -40 44 -44 79 -44 379 l0 289
-114 0 -115 0 -4 -107z"/>
</g>
</svg>
